<mxfile host="app.diagrams.net" agent="Mozilla/5.0 (X11; Linux x86_64) AppleWebKit/537.36 (KHTML, like Gecko) Chrome/132.0.0.0 Safari/537.36" version="26.1.1">
  <diagram name="Page-1" id="4qO5snu0srxXvM7Uzl9y">
    <mxGraphModel dx="2410" dy="1066" grid="1" gridSize="10" guides="1" tooltips="1" connect="1" arrows="1" fold="1" page="1" pageScale="1" pageWidth="850" pageHeight="1100" math="0" shadow="0">
      <root>
        <mxCell id="0" />
        <mxCell id="1" parent="0" />
        <mxCell id="AYIX-EQ2d-SbjMrGPH-w-69" value="User" style="swimlane;whiteSpace=wrap;html=1;startSize=30;" vertex="1" parent="1">
          <mxGeometry x="240" y="350" width="450" height="210" as="geometry" />
        </mxCell>
        <mxCell id="AYIX-EQ2d-SbjMrGPH-w-70" value="" style="swimlane;fontStyle=0;childLayout=stackLayout;horizontal=1;startSize=26;horizontalStack=0;resizeParent=1;resizeParentMax=0;resizeLast=0;collapsible=1;marginBottom=0;align=center;fontSize=14;opacity=0;" vertex="1" parent="AYIX-EQ2d-SbjMrGPH-w-69">
          <mxGeometry y="30" width="300" height="176" as="geometry" />
        </mxCell>
        <mxCell id="AYIX-EQ2d-SbjMrGPH-w-71" value="Store personal info" style="text;strokeColor=none;fillColor=none;spacingLeft=4;spacingRight=4;overflow=hidden;rotatable=0;points=[[0,0.5],[1,0.5]];portConstraint=eastwest;fontSize=12;whiteSpace=wrap;html=1;" vertex="1" parent="AYIX-EQ2d-SbjMrGPH-w-70">
          <mxGeometry y="26" width="300" height="30" as="geometry" />
        </mxCell>
        <mxCell id="AYIX-EQ2d-SbjMrGPH-w-72" value="Review a listing" style="text;strokeColor=none;fillColor=none;spacingLeft=4;spacingRight=4;overflow=hidden;rotatable=0;points=[[0,0.5],[1,0.5]];portConstraint=eastwest;fontSize=12;whiteSpace=wrap;html=1;" vertex="1" parent="AYIX-EQ2d-SbjMrGPH-w-70">
          <mxGeometry y="56" width="300" height="30" as="geometry" />
        </mxCell>
        <mxCell id="AYIX-EQ2d-SbjMrGPH-w-73" value="Order a product" style="text;strokeColor=none;fillColor=none;spacingLeft=4;spacingRight=4;overflow=hidden;rotatable=0;points=[[0,0.5],[1,0.5]];portConstraint=eastwest;fontSize=12;whiteSpace=wrap;html=1;" vertex="1" parent="AYIX-EQ2d-SbjMrGPH-w-70">
          <mxGeometry y="86" width="300" height="30" as="geometry" />
        </mxCell>
        <mxCell id="AYIX-EQ2d-SbjMrGPH-w-158" value="Rate seller" style="text;strokeColor=none;fillColor=none;spacingLeft=4;spacingRight=4;overflow=hidden;rotatable=0;points=[[0,0.5],[1,0.5]];portConstraint=eastwest;fontSize=12;whiteSpace=wrap;html=1;" vertex="1" parent="AYIX-EQ2d-SbjMrGPH-w-70">
          <mxGeometry y="116" width="300" height="30" as="geometry" />
        </mxCell>
        <mxCell id="AYIX-EQ2d-SbjMrGPH-w-130" value="Add payment Gateway" style="text;strokeColor=none;fillColor=none;spacingLeft=4;spacingRight=4;overflow=hidden;rotatable=0;points=[[0,0.5],[1,0.5]];portConstraint=eastwest;fontSize=12;whiteSpace=wrap;html=1;" vertex="1" parent="AYIX-EQ2d-SbjMrGPH-w-70">
          <mxGeometry y="146" width="300" height="30" as="geometry" />
        </mxCell>
        <mxCell id="AYIX-EQ2d-SbjMrGPH-w-74" value="" style="swimlane;fontStyle=0;childLayout=stackLayout;horizontal=1;startSize=26;horizontalStack=0;resizeParent=1;resizeParentMax=0;resizeLast=0;collapsible=1;marginBottom=0;align=center;fontSize=14;opacity=0;" vertex="1" parent="AYIX-EQ2d-SbjMrGPH-w-69">
          <mxGeometry x="300" y="30" width="140" height="146" as="geometry" />
        </mxCell>
        <mxCell id="AYIX-EQ2d-SbjMrGPH-w-75" value="Order" style="text;strokeColor=none;fillColor=none;spacingLeft=4;spacingRight=4;overflow=hidden;rotatable=0;points=[[0,0.5],[1,0.5]];portConstraint=eastwest;fontSize=12;whiteSpace=wrap;html=1;" vertex="1" parent="AYIX-EQ2d-SbjMrGPH-w-74">
          <mxGeometry y="26" width="140" height="30" as="geometry" />
        </mxCell>
        <mxCell id="AYIX-EQ2d-SbjMrGPH-w-76" value="ReviewController" style="text;strokeColor=none;fillColor=none;spacingLeft=4;spacingRight=4;overflow=hidden;rotatable=0;points=[[0,0.5],[1,0.5]];portConstraint=eastwest;fontSize=12;whiteSpace=wrap;html=1;" vertex="1" parent="AYIX-EQ2d-SbjMrGPH-w-74">
          <mxGeometry y="56" width="140" height="30" as="geometry" />
        </mxCell>
        <mxCell id="AYIX-EQ2d-SbjMrGPH-w-131" value="Payment" style="text;strokeColor=none;fillColor=none;spacingLeft=4;spacingRight=4;overflow=hidden;rotatable=0;points=[[0,0.5],[1,0.5]];portConstraint=eastwest;fontSize=12;whiteSpace=wrap;html=1;" vertex="1" parent="AYIX-EQ2d-SbjMrGPH-w-74">
          <mxGeometry y="86" width="140" height="30" as="geometry" />
        </mxCell>
        <mxCell id="AYIX-EQ2d-SbjMrGPH-w-159" value="ReviewController" style="text;strokeColor=none;fillColor=none;spacingLeft=4;spacingRight=4;overflow=hidden;rotatable=0;points=[[0,0.5],[1,0.5]];portConstraint=eastwest;fontSize=12;whiteSpace=wrap;html=1;" vertex="1" parent="AYIX-EQ2d-SbjMrGPH-w-74">
          <mxGeometry y="116" width="140" height="30" as="geometry" />
        </mxCell>
        <mxCell id="AYIX-EQ2d-SbjMrGPH-w-78" value="Authenticator" style="swimlane;whiteSpace=wrap;html=1;startSize=30;" vertex="1" parent="1">
          <mxGeometry x="240" y="770" width="440" height="150" as="geometry" />
        </mxCell>
        <mxCell id="AYIX-EQ2d-SbjMrGPH-w-79" value="" style="swimlane;fontStyle=0;childLayout=stackLayout;horizontal=1;startSize=26;horizontalStack=0;resizeParent=1;resizeParentMax=0;resizeLast=0;collapsible=1;marginBottom=0;align=center;fontSize=14;opacity=0;" vertex="1" parent="AYIX-EQ2d-SbjMrGPH-w-78">
          <mxGeometry y="30" width="300" height="86" as="geometry" />
        </mxCell>
        <mxCell id="AYIX-EQ2d-SbjMrGPH-w-80" value="Verify Login Details" style="text;strokeColor=none;fillColor=none;spacingLeft=4;spacingRight=4;overflow=hidden;rotatable=0;points=[[0,0.5],[1,0.5]];portConstraint=eastwest;fontSize=12;whiteSpace=wrap;html=1;" vertex="1" parent="AYIX-EQ2d-SbjMrGPH-w-79">
          <mxGeometry y="26" width="300" height="30" as="geometry" />
        </mxCell>
        <mxCell id="AYIX-EQ2d-SbjMrGPH-w-81" value="Verify Session tokens" style="text;strokeColor=none;fillColor=none;spacingLeft=4;spacingRight=4;overflow=hidden;rotatable=0;points=[[0,0.5],[1,0.5]];portConstraint=eastwest;fontSize=12;whiteSpace=wrap;html=1;" vertex="1" parent="AYIX-EQ2d-SbjMrGPH-w-79">
          <mxGeometry y="56" width="300" height="30" as="geometry" />
        </mxCell>
        <mxCell id="AYIX-EQ2d-SbjMrGPH-w-83" value="" style="swimlane;fontStyle=0;childLayout=stackLayout;horizontal=1;startSize=26;horizontalStack=0;resizeParent=1;resizeParentMax=0;resizeLast=0;collapsible=1;marginBottom=0;align=center;fontSize=14;opacity=0;" vertex="1" parent="AYIX-EQ2d-SbjMrGPH-w-78">
          <mxGeometry x="300" y="30" width="140" height="56" as="geometry" />
        </mxCell>
        <mxCell id="AYIX-EQ2d-SbjMrGPH-w-84" value="LoginController" style="text;strokeColor=none;fillColor=none;spacingLeft=4;spacingRight=4;overflow=hidden;rotatable=0;points=[[0,0.5],[1,0.5]];portConstraint=eastwest;fontSize=12;whiteSpace=wrap;html=1;" vertex="1" parent="AYIX-EQ2d-SbjMrGPH-w-83">
          <mxGeometry y="26" width="140" height="30" as="geometry" />
        </mxCell>
        <mxCell id="AYIX-EQ2d-SbjMrGPH-w-86" value="LoginController" style="swimlane;whiteSpace=wrap;html=1;startSize=30;" vertex="1" parent="1">
          <mxGeometry x="240" y="950" width="440" height="150" as="geometry" />
        </mxCell>
        <mxCell id="AYIX-EQ2d-SbjMrGPH-w-87" value="" style="swimlane;fontStyle=0;childLayout=stackLayout;horizontal=1;startSize=26;horizontalStack=0;resizeParent=1;resizeParentMax=0;resizeLast=0;collapsible=1;marginBottom=0;align=center;fontSize=14;opacity=0;" vertex="1" parent="AYIX-EQ2d-SbjMrGPH-w-86">
          <mxGeometry y="30" width="300" height="86" as="geometry" />
        </mxCell>
        <mxCell id="AYIX-EQ2d-SbjMrGPH-w-88" value="Login a user" style="text;strokeColor=none;fillColor=none;spacingLeft=4;spacingRight=4;overflow=hidden;rotatable=0;points=[[0,0.5],[1,0.5]];portConstraint=eastwest;fontSize=12;whiteSpace=wrap;html=1;" vertex="1" parent="AYIX-EQ2d-SbjMrGPH-w-87">
          <mxGeometry y="26" width="300" height="30" as="geometry" />
        </mxCell>
        <mxCell id="AYIX-EQ2d-SbjMrGPH-w-89" value="Create a session" style="text;strokeColor=none;fillColor=none;spacingLeft=4;spacingRight=4;overflow=hidden;rotatable=0;points=[[0,0.5],[1,0.5]];portConstraint=eastwest;fontSize=12;whiteSpace=wrap;html=1;" vertex="1" parent="AYIX-EQ2d-SbjMrGPH-w-87">
          <mxGeometry y="56" width="300" height="30" as="geometry" />
        </mxCell>
        <mxCell id="AYIX-EQ2d-SbjMrGPH-w-91" value="" style="swimlane;fontStyle=0;childLayout=stackLayout;horizontal=1;startSize=26;horizontalStack=0;resizeParent=1;resizeParentMax=0;resizeLast=0;collapsible=1;marginBottom=0;align=center;fontSize=14;opacity=0;" vertex="1" parent="AYIX-EQ2d-SbjMrGPH-w-86">
          <mxGeometry x="300" y="30" width="140" height="116" as="geometry" />
        </mxCell>
        <mxCell id="AYIX-EQ2d-SbjMrGPH-w-92" value="Authenticator" style="text;strokeColor=none;fillColor=none;spacingLeft=4;spacingRight=4;overflow=hidden;rotatable=0;points=[[0,0.5],[1,0.5]];portConstraint=eastwest;fontSize=12;whiteSpace=wrap;html=1;" vertex="1" parent="AYIX-EQ2d-SbjMrGPH-w-91">
          <mxGeometry y="26" width="140" height="30" as="geometry" />
        </mxCell>
        <mxCell id="AYIX-EQ2d-SbjMrGPH-w-171" value="InputSanatizer" style="text;strokeColor=none;fillColor=none;spacingLeft=4;spacingRight=4;overflow=hidden;rotatable=0;points=[[0,0.5],[1,0.5]];portConstraint=eastwest;fontSize=12;whiteSpace=wrap;html=1;" vertex="1" parent="AYIX-EQ2d-SbjMrGPH-w-91">
          <mxGeometry y="56" width="140" height="30" as="geometry" />
        </mxCell>
        <mxCell id="AYIX-EQ2d-SbjMrGPH-w-93" value="User" style="text;strokeColor=none;fillColor=none;spacingLeft=4;spacingRight=4;overflow=hidden;rotatable=0;points=[[0,0.5],[1,0.5]];portConstraint=eastwest;fontSize=12;whiteSpace=wrap;html=1;" vertex="1" parent="AYIX-EQ2d-SbjMrGPH-w-91">
          <mxGeometry y="86" width="140" height="30" as="geometry" />
        </mxCell>
        <mxCell id="AYIX-EQ2d-SbjMrGPH-w-94" value="Product" style="swimlane;whiteSpace=wrap;html=1;startSize=30;" vertex="1" parent="1">
          <mxGeometry x="-270" y="350" width="440" height="150" as="geometry" />
        </mxCell>
        <mxCell id="AYIX-EQ2d-SbjMrGPH-w-95" value="" style="swimlane;fontStyle=0;childLayout=stackLayout;horizontal=1;startSize=26;horizontalStack=0;resizeParent=1;resizeParentMax=0;resizeLast=0;collapsible=1;marginBottom=0;align=center;fontSize=14;opacity=0;" vertex="1" parent="AYIX-EQ2d-SbjMrGPH-w-94">
          <mxGeometry y="30" width="300" height="56" as="geometry" />
        </mxCell>
        <mxCell id="AYIX-EQ2d-SbjMrGPH-w-96" value="Store product details" style="text;strokeColor=none;fillColor=none;spacingLeft=4;spacingRight=4;overflow=hidden;rotatable=0;points=[[0,0.5],[1,0.5]];portConstraint=eastwest;fontSize=12;whiteSpace=wrap;html=1;" vertex="1" parent="AYIX-EQ2d-SbjMrGPH-w-95">
          <mxGeometry y="26" width="300" height="30" as="geometry" />
        </mxCell>
        <mxCell id="AYIX-EQ2d-SbjMrGPH-w-99" value="" style="swimlane;fontStyle=0;childLayout=stackLayout;horizontal=1;startSize=26;horizontalStack=0;resizeParent=1;resizeParentMax=0;resizeLast=0;collapsible=1;marginBottom=0;align=center;fontSize=14;opacity=0;" vertex="1" parent="AYIX-EQ2d-SbjMrGPH-w-94">
          <mxGeometry x="300" y="30" width="140" height="56" as="geometry" />
        </mxCell>
        <mxCell id="AYIX-EQ2d-SbjMrGPH-w-100" value="Listing" style="text;strokeColor=none;fillColor=none;spacingLeft=4;spacingRight=4;overflow=hidden;rotatable=0;points=[[0,0.5],[1,0.5]];portConstraint=eastwest;fontSize=12;whiteSpace=wrap;html=1;" vertex="1" parent="AYIX-EQ2d-SbjMrGPH-w-99">
          <mxGeometry y="26" width="140" height="30" as="geometry" />
        </mxCell>
        <mxCell id="AYIX-EQ2d-SbjMrGPH-w-102" value="Listing" style="swimlane;whiteSpace=wrap;html=1;startSize=30;" vertex="1" parent="1">
          <mxGeometry x="-270" y="530" width="440" height="180" as="geometry" />
        </mxCell>
        <mxCell id="AYIX-EQ2d-SbjMrGPH-w-103" value="" style="swimlane;fontStyle=0;childLayout=stackLayout;horizontal=1;startSize=26;horizontalStack=0;resizeParent=1;resizeParentMax=0;resizeLast=0;collapsible=1;marginBottom=0;align=center;fontSize=14;opacity=0;" vertex="1" parent="AYIX-EQ2d-SbjMrGPH-w-102">
          <mxGeometry y="30" width="300" height="146" as="geometry" />
        </mxCell>
        <mxCell id="AYIX-EQ2d-SbjMrGPH-w-109" value="Store listing details" style="text;strokeColor=none;fillColor=none;spacingLeft=4;spacingRight=4;overflow=hidden;rotatable=0;points=[[0,0.5],[1,0.5]];portConstraint=eastwest;fontSize=12;whiteSpace=wrap;html=1;" vertex="1" parent="AYIX-EQ2d-SbjMrGPH-w-103">
          <mxGeometry y="26" width="300" height="30" as="geometry" />
        </mxCell>
        <mxCell id="AYIX-EQ2d-SbjMrGPH-w-104" value="Add product" style="text;strokeColor=none;fillColor=none;spacingLeft=4;spacingRight=4;overflow=hidden;rotatable=0;points=[[0,0.5],[1,0.5]];portConstraint=eastwest;fontSize=12;whiteSpace=wrap;html=1;" vertex="1" parent="AYIX-EQ2d-SbjMrGPH-w-103">
          <mxGeometry y="56" width="300" height="30" as="geometry" />
        </mxCell>
        <mxCell id="AYIX-EQ2d-SbjMrGPH-w-110" value="Add images" style="text;strokeColor=none;fillColor=none;spacingLeft=4;spacingRight=4;overflow=hidden;rotatable=0;points=[[0,0.5],[1,0.5]];portConstraint=eastwest;fontSize=12;whiteSpace=wrap;html=1;" vertex="1" parent="AYIX-EQ2d-SbjMrGPH-w-103">
          <mxGeometry y="86" width="300" height="30" as="geometry" />
        </mxCell>
        <mxCell id="AYIX-EQ2d-SbjMrGPH-w-111" value="Set price" style="text;strokeColor=none;fillColor=none;spacingLeft=4;spacingRight=4;overflow=hidden;rotatable=0;points=[[0,0.5],[1,0.5]];portConstraint=eastwest;fontSize=12;whiteSpace=wrap;html=1;" vertex="1" parent="AYIX-EQ2d-SbjMrGPH-w-103">
          <mxGeometry y="116" width="300" height="30" as="geometry" />
        </mxCell>
        <mxCell id="AYIX-EQ2d-SbjMrGPH-w-105" value="" style="swimlane;fontStyle=0;childLayout=stackLayout;horizontal=1;startSize=26;horizontalStack=0;resizeParent=1;resizeParentMax=0;resizeLast=0;collapsible=1;marginBottom=0;align=center;fontSize=14;opacity=0;" vertex="1" parent="AYIX-EQ2d-SbjMrGPH-w-102">
          <mxGeometry x="300" y="30" width="140" height="56" as="geometry" />
        </mxCell>
        <mxCell id="AYIX-EQ2d-SbjMrGPH-w-106" value="Product" style="text;strokeColor=none;fillColor=none;spacingLeft=4;spacingRight=4;overflow=hidden;rotatable=0;points=[[0,0.5],[1,0.5]];portConstraint=eastwest;fontSize=12;whiteSpace=wrap;html=1;" vertex="1" parent="AYIX-EQ2d-SbjMrGPH-w-105">
          <mxGeometry y="26" width="140" height="30" as="geometry" />
        </mxCell>
        <mxCell id="AYIX-EQ2d-SbjMrGPH-w-112" value="Order" style="swimlane;whiteSpace=wrap;html=1;startSize=30;" vertex="1" parent="1">
          <mxGeometry x="-270" y="730" width="440" height="180" as="geometry" />
        </mxCell>
        <mxCell id="AYIX-EQ2d-SbjMrGPH-w-113" value="" style="swimlane;fontStyle=0;childLayout=stackLayout;horizontal=1;startSize=26;horizontalStack=0;resizeParent=1;resizeParentMax=0;resizeLast=0;collapsible=1;marginBottom=0;align=center;fontSize=14;opacity=0;" vertex="1" parent="AYIX-EQ2d-SbjMrGPH-w-112">
          <mxGeometry y="30" width="300" height="116" as="geometry" />
        </mxCell>
        <mxCell id="AYIX-EQ2d-SbjMrGPH-w-114" value="Add listing" style="text;strokeColor=none;fillColor=none;spacingLeft=4;spacingRight=4;overflow=hidden;rotatable=0;points=[[0,0.5],[1,0.5]];portConstraint=eastwest;fontSize=12;whiteSpace=wrap;html=1;" vertex="1" parent="AYIX-EQ2d-SbjMrGPH-w-113">
          <mxGeometry y="26" width="300" height="30" as="geometry" />
        </mxCell>
        <mxCell id="AYIX-EQ2d-SbjMrGPH-w-115" value="Set buyer" style="text;strokeColor=none;fillColor=none;spacingLeft=4;spacingRight=4;overflow=hidden;rotatable=0;points=[[0,0.5],[1,0.5]];portConstraint=eastwest;fontSize=12;whiteSpace=wrap;html=1;" vertex="1" parent="AYIX-EQ2d-SbjMrGPH-w-113">
          <mxGeometry y="56" width="300" height="30" as="geometry" />
        </mxCell>
        <mxCell id="AYIX-EQ2d-SbjMrGPH-w-117" value="Calculate Total" style="text;strokeColor=none;fillColor=none;spacingLeft=4;spacingRight=4;overflow=hidden;rotatable=0;points=[[0,0.5],[1,0.5]];portConstraint=eastwest;fontSize=12;whiteSpace=wrap;html=1;" vertex="1" parent="AYIX-EQ2d-SbjMrGPH-w-113">
          <mxGeometry y="86" width="300" height="30" as="geometry" />
        </mxCell>
        <mxCell id="AYIX-EQ2d-SbjMrGPH-w-118" value="" style="swimlane;fontStyle=0;childLayout=stackLayout;horizontal=1;startSize=26;horizontalStack=0;resizeParent=1;resizeParentMax=0;resizeLast=0;collapsible=1;marginBottom=0;align=center;fontSize=14;opacity=0;" vertex="1" parent="AYIX-EQ2d-SbjMrGPH-w-112">
          <mxGeometry x="300" y="30" width="140" height="86" as="geometry" />
        </mxCell>
        <mxCell id="AYIX-EQ2d-SbjMrGPH-w-119" value="Listing" style="text;strokeColor=none;fillColor=none;spacingLeft=4;spacingRight=4;overflow=hidden;rotatable=0;points=[[0,0.5],[1,0.5]];portConstraint=eastwest;fontSize=12;whiteSpace=wrap;html=1;" vertex="1" parent="AYIX-EQ2d-SbjMrGPH-w-118">
          <mxGeometry y="26" width="140" height="30" as="geometry" />
        </mxCell>
        <mxCell id="AYIX-EQ2d-SbjMrGPH-w-120" value="User" style="text;strokeColor=none;fillColor=none;spacingLeft=4;spacingRight=4;overflow=hidden;rotatable=0;points=[[0,0.5],[1,0.5]];portConstraint=eastwest;fontSize=12;whiteSpace=wrap;html=1;" vertex="1" parent="AYIX-EQ2d-SbjMrGPH-w-118">
          <mxGeometry y="56" width="140" height="30" as="geometry" />
        </mxCell>
        <mxCell id="AYIX-EQ2d-SbjMrGPH-w-122" value="PaymentController" style="swimlane;whiteSpace=wrap;html=1;startSize=30;" vertex="1" parent="1">
          <mxGeometry x="-270" y="930" width="440" height="180" as="geometry" />
        </mxCell>
        <mxCell id="AYIX-EQ2d-SbjMrGPH-w-123" value="" style="swimlane;fontStyle=0;childLayout=stackLayout;horizontal=1;startSize=26;horizontalStack=0;resizeParent=1;resizeParentMax=0;resizeLast=0;collapsible=1;marginBottom=0;align=center;fontSize=14;opacity=0;" vertex="1" parent="AYIX-EQ2d-SbjMrGPH-w-122">
          <mxGeometry y="30" width="300" height="116" as="geometry" />
        </mxCell>
        <mxCell id="AYIX-EQ2d-SbjMrGPH-w-124" value="Pay order" style="text;strokeColor=none;fillColor=none;spacingLeft=4;spacingRight=4;overflow=hidden;rotatable=0;points=[[0,0.5],[1,0.5]];portConstraint=eastwest;fontSize=12;whiteSpace=wrap;html=1;" vertex="1" parent="AYIX-EQ2d-SbjMrGPH-w-123">
          <mxGeometry y="26" width="300" height="30" as="geometry" />
        </mxCell>
        <mxCell id="AYIX-EQ2d-SbjMrGPH-w-125" value="Set PaymentGateway" style="text;strokeColor=none;fillColor=none;spacingLeft=4;spacingRight=4;overflow=hidden;rotatable=0;points=[[0,0.5],[1,0.5]];portConstraint=eastwest;fontSize=12;whiteSpace=wrap;html=1;" vertex="1" parent="AYIX-EQ2d-SbjMrGPH-w-123">
          <mxGeometry y="56" width="300" height="30" as="geometry" />
        </mxCell>
        <mxCell id="AYIX-EQ2d-SbjMrGPH-w-126" value="Calculate Total" style="text;strokeColor=none;fillColor=none;spacingLeft=4;spacingRight=4;overflow=hidden;rotatable=0;points=[[0,0.5],[1,0.5]];portConstraint=eastwest;fontSize=12;whiteSpace=wrap;html=1;" vertex="1" parent="AYIX-EQ2d-SbjMrGPH-w-123">
          <mxGeometry y="86" width="300" height="30" as="geometry" />
        </mxCell>
        <mxCell id="AYIX-EQ2d-SbjMrGPH-w-127" value="" style="swimlane;fontStyle=0;childLayout=stackLayout;horizontal=1;startSize=26;horizontalStack=0;resizeParent=1;resizeParentMax=0;resizeLast=0;collapsible=1;marginBottom=0;align=center;fontSize=14;opacity=0;" vertex="1" parent="AYIX-EQ2d-SbjMrGPH-w-122">
          <mxGeometry x="300" y="30" width="140" height="86" as="geometry" />
        </mxCell>
        <mxCell id="AYIX-EQ2d-SbjMrGPH-w-128" value="Order" style="text;strokeColor=none;fillColor=none;spacingLeft=4;spacingRight=4;overflow=hidden;rotatable=0;points=[[0,0.5],[1,0.5]];portConstraint=eastwest;fontSize=12;whiteSpace=wrap;html=1;" vertex="1" parent="AYIX-EQ2d-SbjMrGPH-w-127">
          <mxGeometry y="26" width="140" height="30" as="geometry" />
        </mxCell>
        <mxCell id="AYIX-EQ2d-SbjMrGPH-w-129" value="Payment" style="text;strokeColor=none;fillColor=none;spacingLeft=4;spacingRight=4;overflow=hidden;rotatable=0;points=[[0,0.5],[1,0.5]];portConstraint=eastwest;fontSize=12;whiteSpace=wrap;html=1;" vertex="1" parent="AYIX-EQ2d-SbjMrGPH-w-127">
          <mxGeometry y="56" width="140" height="30" as="geometry" />
        </mxCell>
        <mxCell id="AYIX-EQ2d-SbjMrGPH-w-133" value="Payment" style="swimlane;whiteSpace=wrap;html=1;startSize=30;" vertex="1" parent="1">
          <mxGeometry x="240" y="590" width="440" height="150" as="geometry" />
        </mxCell>
        <mxCell id="AYIX-EQ2d-SbjMrGPH-w-134" value="" style="swimlane;fontStyle=0;childLayout=stackLayout;horizontal=1;startSize=26;horizontalStack=0;resizeParent=1;resizeParentMax=0;resizeLast=0;collapsible=1;marginBottom=0;align=center;fontSize=14;opacity=0;" vertex="1" parent="AYIX-EQ2d-SbjMrGPH-w-133">
          <mxGeometry y="30" width="300" height="56" as="geometry" />
        </mxCell>
        <mxCell id="AYIX-EQ2d-SbjMrGPH-w-135" value="Store payment details" style="text;strokeColor=none;fillColor=none;spacingLeft=4;spacingRight=4;overflow=hidden;rotatable=0;points=[[0,0.5],[1,0.5]];portConstraint=eastwest;fontSize=12;whiteSpace=wrap;html=1;" vertex="1" parent="AYIX-EQ2d-SbjMrGPH-w-134">
          <mxGeometry y="26" width="300" height="30" as="geometry" />
        </mxCell>
        <mxCell id="AYIX-EQ2d-SbjMrGPH-w-136" value="" style="swimlane;fontStyle=0;childLayout=stackLayout;horizontal=1;startSize=26;horizontalStack=0;resizeParent=1;resizeParentMax=0;resizeLast=0;collapsible=1;marginBottom=0;align=center;fontSize=14;opacity=0;" vertex="1" parent="AYIX-EQ2d-SbjMrGPH-w-133">
          <mxGeometry x="300" y="30" width="140" height="56" as="geometry" />
        </mxCell>
        <mxCell id="AYIX-EQ2d-SbjMrGPH-w-140" value="User" style="text;strokeColor=none;fillColor=none;spacingLeft=4;spacingRight=4;overflow=hidden;rotatable=0;points=[[0,0.5],[1,0.5]];portConstraint=eastwest;fontSize=12;whiteSpace=wrap;html=1;" vertex="1" parent="AYIX-EQ2d-SbjMrGPH-w-136">
          <mxGeometry y="26" width="140" height="30" as="geometry" />
        </mxCell>
        <mxCell id="AYIX-EQ2d-SbjMrGPH-w-141" value="ReviewController" style="swimlane;whiteSpace=wrap;html=1;startSize=30;" vertex="1" parent="1">
          <mxGeometry x="740" y="350" width="440" height="150" as="geometry" />
        </mxCell>
        <mxCell id="AYIX-EQ2d-SbjMrGPH-w-142" value="" style="swimlane;fontStyle=0;childLayout=stackLayout;horizontal=1;startSize=26;horizontalStack=0;resizeParent=1;resizeParentMax=0;resizeLast=0;collapsible=1;marginBottom=0;align=center;fontSize=14;opacity=0;" vertex="1" parent="AYIX-EQ2d-SbjMrGPH-w-141">
          <mxGeometry y="30" width="300" height="116" as="geometry" />
        </mxCell>
        <mxCell id="AYIX-EQ2d-SbjMrGPH-w-143" value="Review a seller" style="text;strokeColor=none;fillColor=none;spacingLeft=4;spacingRight=4;overflow=hidden;rotatable=0;points=[[0,0.5],[1,0.5]];portConstraint=eastwest;fontSize=12;whiteSpace=wrap;html=1;" vertex="1" parent="AYIX-EQ2d-SbjMrGPH-w-142">
          <mxGeometry y="26" width="300" height="30" as="geometry" />
        </mxCell>
        <mxCell id="AYIX-EQ2d-SbjMrGPH-w-168" value="Add Review" style="text;strokeColor=none;fillColor=none;spacingLeft=4;spacingRight=4;overflow=hidden;rotatable=0;points=[[0,0.5],[1,0.5]];portConstraint=eastwest;fontSize=12;whiteSpace=wrap;html=1;" vertex="1" parent="AYIX-EQ2d-SbjMrGPH-w-142">
          <mxGeometry y="56" width="300" height="30" as="geometry" />
        </mxCell>
        <mxCell id="AYIX-EQ2d-SbjMrGPH-w-160" value="Delete Review" style="text;strokeColor=none;fillColor=none;spacingLeft=4;spacingRight=4;overflow=hidden;rotatable=0;points=[[0,0.5],[1,0.5]];portConstraint=eastwest;fontSize=12;whiteSpace=wrap;html=1;" vertex="1" parent="AYIX-EQ2d-SbjMrGPH-w-142">
          <mxGeometry y="86" width="300" height="30" as="geometry" />
        </mxCell>
        <mxCell id="AYIX-EQ2d-SbjMrGPH-w-145" value="" style="swimlane;fontStyle=0;childLayout=stackLayout;horizontal=1;startSize=26;horizontalStack=0;resizeParent=1;resizeParentMax=0;resizeLast=0;collapsible=1;marginBottom=0;align=center;fontSize=14;opacity=0;" vertex="1" parent="AYIX-EQ2d-SbjMrGPH-w-141">
          <mxGeometry x="300" y="30" width="140" height="86" as="geometry" />
        </mxCell>
        <mxCell id="AYIX-EQ2d-SbjMrGPH-w-167" value="Seller" style="text;strokeColor=none;fillColor=none;spacingLeft=4;spacingRight=4;overflow=hidden;rotatable=0;points=[[0,0.5],[1,0.5]];portConstraint=eastwest;fontSize=12;whiteSpace=wrap;html=1;" vertex="1" parent="AYIX-EQ2d-SbjMrGPH-w-145">
          <mxGeometry y="26" width="140" height="30" as="geometry" />
        </mxCell>
        <mxCell id="AYIX-EQ2d-SbjMrGPH-w-147" value="InputSanatizer" style="text;strokeColor=none;fillColor=none;spacingLeft=4;spacingRight=4;overflow=hidden;rotatable=0;points=[[0,0.5],[1,0.5]];portConstraint=eastwest;fontSize=12;whiteSpace=wrap;html=1;" vertex="1" parent="AYIX-EQ2d-SbjMrGPH-w-145">
          <mxGeometry y="56" width="140" height="30" as="geometry" />
        </mxCell>
        <mxCell id="AYIX-EQ2d-SbjMrGPH-w-148" value="Seller" style="swimlane;whiteSpace=wrap;html=1;startSize=30;" vertex="1" parent="1">
          <mxGeometry x="240" y="140" width="450" height="180" as="geometry" />
        </mxCell>
        <mxCell id="AYIX-EQ2d-SbjMrGPH-w-149" value="" style="swimlane;fontStyle=0;childLayout=stackLayout;horizontal=1;startSize=26;horizontalStack=0;resizeParent=1;resizeParentMax=0;resizeLast=0;collapsible=1;marginBottom=0;align=center;fontSize=14;opacity=0;" vertex="1" parent="AYIX-EQ2d-SbjMrGPH-w-148">
          <mxGeometry y="30" width="300" height="86" as="geometry" />
        </mxCell>
        <mxCell id="AYIX-EQ2d-SbjMrGPH-w-150" value="Store seller details" style="text;strokeColor=none;fillColor=none;spacingLeft=4;spacingRight=4;overflow=hidden;rotatable=0;points=[[0,0.5],[1,0.5]];portConstraint=eastwest;fontSize=12;whiteSpace=wrap;html=1;" vertex="1" parent="AYIX-EQ2d-SbjMrGPH-w-149">
          <mxGeometry y="26" width="300" height="30" as="geometry" />
        </mxCell>
        <mxCell id="AYIX-EQ2d-SbjMrGPH-w-169" value="Set rating" style="text;strokeColor=none;fillColor=none;spacingLeft=4;spacingRight=4;overflow=hidden;rotatable=0;points=[[0,0.5],[1,0.5]];portConstraint=eastwest;fontSize=12;whiteSpace=wrap;html=1;" vertex="1" parent="AYIX-EQ2d-SbjMrGPH-w-149">
          <mxGeometry y="56" width="300" height="30" as="geometry" />
        </mxCell>
        <mxCell id="AYIX-EQ2d-SbjMrGPH-w-154" value="" style="swimlane;fontStyle=0;childLayout=stackLayout;horizontal=1;startSize=26;horizontalStack=0;resizeParent=1;resizeParentMax=0;resizeLast=0;collapsible=1;marginBottom=0;align=center;fontSize=14;opacity=0;" vertex="1" parent="AYIX-EQ2d-SbjMrGPH-w-148">
          <mxGeometry x="300" y="30" width="140" height="86" as="geometry" />
        </mxCell>
        <mxCell id="AYIX-EQ2d-SbjMrGPH-w-155" value="Listing" style="text;strokeColor=none;fillColor=none;spacingLeft=4;spacingRight=4;overflow=hidden;rotatable=0;points=[[0,0.5],[1,0.5]];portConstraint=eastwest;fontSize=12;whiteSpace=wrap;html=1;" vertex="1" parent="AYIX-EQ2d-SbjMrGPH-w-154">
          <mxGeometry y="26" width="140" height="30" as="geometry" />
        </mxCell>
        <mxCell id="AYIX-EQ2d-SbjMrGPH-w-170" value="ReviewController" style="text;strokeColor=none;fillColor=none;spacingLeft=4;spacingRight=4;overflow=hidden;rotatable=0;points=[[0,0.5],[1,0.5]];portConstraint=eastwest;fontSize=12;whiteSpace=wrap;html=1;" vertex="1" parent="AYIX-EQ2d-SbjMrGPH-w-154">
          <mxGeometry y="56" width="140" height="30" as="geometry" />
        </mxCell>
        <mxCell id="AYIX-EQ2d-SbjMrGPH-w-161" value="InputSanatizer" style="swimlane;whiteSpace=wrap;html=1;startSize=30;" vertex="1" parent="1">
          <mxGeometry x="740" y="590" width="440" height="150" as="geometry" />
        </mxCell>
        <mxCell id="AYIX-EQ2d-SbjMrGPH-w-162" value="" style="swimlane;fontStyle=0;childLayout=stackLayout;horizontal=1;startSize=26;horizontalStack=0;resizeParent=1;resizeParentMax=0;resizeLast=0;collapsible=1;marginBottom=0;align=center;fontSize=14;opacity=0;" vertex="1" parent="AYIX-EQ2d-SbjMrGPH-w-161">
          <mxGeometry y="30" width="300" height="56" as="geometry" />
        </mxCell>
        <mxCell id="AYIX-EQ2d-SbjMrGPH-w-163" value="Sanatize user input" style="text;strokeColor=none;fillColor=none;spacingLeft=4;spacingRight=4;overflow=hidden;rotatable=0;points=[[0,0.5],[1,0.5]];portConstraint=eastwest;fontSize=12;whiteSpace=wrap;html=1;" vertex="1" parent="AYIX-EQ2d-SbjMrGPH-w-162">
          <mxGeometry y="26" width="300" height="30" as="geometry" />
        </mxCell>
        <mxCell id="AYIX-EQ2d-SbjMrGPH-w-165" value="" style="swimlane;fontStyle=0;childLayout=stackLayout;horizontal=1;startSize=26;horizontalStack=0;resizeParent=1;resizeParentMax=0;resizeLast=0;collapsible=1;marginBottom=0;align=center;fontSize=14;opacity=0;" vertex="1" parent="AYIX-EQ2d-SbjMrGPH-w-161">
          <mxGeometry x="300" y="30" width="140" height="56" as="geometry" />
        </mxCell>
      </root>
    </mxGraphModel>
  </diagram>
</mxfile>
